<svg width="15" height="14" viewBox="0 0 15 14" fill="none" xmlns="http://www.w3.org/2000/svg">
<path d="M4.83282 9.25599H4.83352C4.83411 9.25599 4.83469 9.25587 4.83525 9.25587H12.8028C12.8982 9.25585 12.9911 9.22474 13.0674 9.16723C13.1436 9.10973 13.199 9.02896 13.2253 8.93715L14.9831 2.7848C15.0018 2.71941 15.005 2.65058 14.9926 2.58372C14.9802 2.51686 14.9524 2.45379 14.9115 2.39949C14.8705 2.34518 14.8175 2.30111 14.7566 2.27077C14.6957 2.24042 14.6286 2.22462 14.5606 2.22461H3.81935L3.50523 0.810919C3.48352 0.71331 3.42918 0.62602 3.35118 0.563457C3.27317 0.500894 3.17617 0.466798 3.07618 0.466797L0.439454 0.466797C0.196729 0.466797 0 0.663526 0 0.906251C0 1.14898 0.196729 1.3457 0.439454 1.3457H2.72371C2.77931 1.59619 4.22699 8.11089 4.31031 8.48566C3.84329 8.68868 3.51563 9.15439 3.51563 9.69533C3.51563 10.4222 4.10708 11.0137 4.83399 11.0137H12.8028C13.0455 11.0137 13.2422 10.817 13.2422 10.5742C13.2422 10.3315 13.0455 10.1348 12.8028 10.1348H4.83399C4.59171 10.1348 4.39454 9.93761 4.39454 9.69533C4.39454 9.45339 4.59103 9.25655 4.83282 9.25599ZM13.978 3.10352L12.4712 8.37697H5.18649L4.01462 3.10352H13.978ZM4.39454 12.332C4.39454 13.059 4.98598 13.6504 5.7129 13.6504C6.43981 13.6504 7.03126 13.059 7.03126 12.332C7.03126 11.6051 6.43981 11.0137 5.7129 11.0137C4.98598 11.0137 4.39454 11.6051 4.39454 12.332ZM5.7129 11.8926C5.95518 11.8926 6.15235 12.0898 6.15235 12.332C6.15235 12.5743 5.95518 12.7715 5.7129 12.7715C5.47061 12.7715 5.27345 12.5743 5.27345 12.332C5.27345 12.0898 5.47061 11.8926 5.7129 11.8926ZM10.6055 12.332C10.6055 13.059 11.1969 13.6504 11.9238 13.6504C12.6508 13.6504 13.2422 13.059 13.2422 12.332C13.2422 11.6051 12.6508 11.0137 11.9238 11.0137C11.1969 11.0137 10.6055 11.6051 10.6055 12.332ZM11.9238 11.8926C12.1661 11.8926 12.3633 12.0898 12.3633 12.332C12.3633 12.5743 12.1661 12.7715 11.9238 12.7715C11.6816 12.7715 11.4844 12.5743 11.4844 12.332C11.4844 12.0898 11.6816 11.8926 11.9238 11.8926Z" fill="black"/>
</svg>
